<svg width="196" height="171" viewBox="0 0 196 171" fill="none" xmlns="http://www.w3.org/2000/svg">
<g clip-path="url(#clip0)">
<path d="M196 168.88L55.694 171L0 161.107H86.9459L196 168.88Z" fill="#222831"/>
<path d="M161.57 44.9876C173.965 44.9876 184.014 34.9168 184.014 22.4938C184.014 10.0708 173.965 0 161.57 0C149.174 0 139.126 10.0708 139.126 22.4938C139.126 34.9168 149.174 44.9876 161.57 44.9876Z" fill="#EEEEEE"/>
<path d="M39.7047 162.283C39.7047 162.283 40.033 155.389 46.7632 156.19L39.7047 162.283Z" fill="#222831"/>
<path d="M37.803 155.722C39.6633 155.722 41.1714 154.211 41.1714 152.346C41.1714 150.482 39.6633 148.971 37.803 148.971C35.9427 148.971 34.4346 150.482 34.4346 152.346C34.4346 154.211 35.9427 155.722 37.803 155.722Z" fill="#00ADB5"/>
<path d="M38.2058 158.031H37.2549V164.702H38.2058V158.031Z" fill="#222831"/>
<path d="M150.633 163.461C150.633 163.461 150.962 156.566 157.692 157.368L150.633 163.461Z" fill="#222831"/>
<path d="M148.732 156.9C150.592 156.9 152.1 155.389 152.1 153.524C152.1 151.66 150.592 150.148 148.732 150.148C146.871 150.148 145.363 151.66 145.363 153.524C145.363 155.389 146.871 156.9 148.732 156.9Z" fill="#00ADB5"/>
<path d="M149.135 159.209H148.184V165.879H149.135V159.209Z" fill="#222831"/>
<path d="M166.85 164.638C166.85 164.638 167.178 157.744 173.908 158.546L166.85 164.638Z" fill="#222831"/>
<path d="M164.948 158.078C166.808 158.078 168.317 156.566 168.317 154.702C168.317 152.837 166.808 151.326 164.948 151.326C163.088 151.326 161.58 152.837 161.58 154.702C161.58 156.566 163.088 158.078 164.948 158.078Z" fill="#00ADB5"/>
<path d="M165.351 160.387H164.4V167.057H165.351V160.387Z" fill="#222831"/>
<path d="M66.2618 158.986C66.2618 158.986 66.5901 152.091 73.3203 152.893L66.2618 158.986Z" fill="#222831"/>
<path d="M64.3601 152.425C66.2205 152.425 67.7285 150.913 67.7285 149.049C67.7285 147.184 66.2205 145.673 64.3601 145.673C62.4998 145.673 60.9917 147.184 60.9917 149.049C60.9917 150.913 62.4998 152.425 64.3601 152.425Z" fill="#00ADB5"/>
<path d="M64.7629 154.734H63.812V161.404H64.7629V154.734Z" fill="#222831"/>
<path d="M16.2028 160.163C16.2028 160.163 16.5311 153.269 23.2613 154.07L16.2028 160.163Z" fill="#222831"/>
<path d="M14.3012 153.602C16.1615 153.602 17.6696 152.091 17.6696 150.227C17.6696 148.362 16.1615 146.851 14.3012 146.851C12.4408 146.851 10.9327 148.362 10.9327 150.227C10.9327 152.091 12.4408 153.602 14.3012 153.602Z" fill="#00ADB5"/>
<path d="M14.7039 155.911H13.7531V162.582H14.7039V155.911Z" fill="#222831"/>
<path d="M97.6447 148.183C117.913 148.183 134.344 131.716 134.344 111.403C134.344 91.0894 117.913 74.6223 97.6447 74.6223C77.3762 74.6223 60.9453 91.0894 60.9453 111.403C60.9453 131.716 77.3762 148.183 97.6447 148.183Z" fill="#222831"/>
<path d="M74.5402 114.355C75.4516 113.262 76.5915 112.382 77.8794 111.778C79.1673 111.175 80.5717 110.862 81.9935 110.862C83.4153 110.862 84.8197 111.175 86.1076 111.778C87.3955 112.382 88.5354 113.262 89.4468 114.355C91.0065 112.863 92.0844 110.937 92.5418 108.825C92.9992 106.713 92.815 104.513 92.0131 102.507C91.2111 100.501 89.8281 98.7817 88.0423 97.5708C86.2564 96.3598 84.1497 95.7126 81.9935 95.7126C79.8373 95.7126 77.7306 96.3598 75.9447 97.5708C74.1589 98.7817 72.7759 100.501 71.9739 102.507C71.172 104.513 70.9878 106.713 71.4452 108.825C71.9026 110.937 72.9805 112.863 74.5402 114.355Z" fill="#EEEEEE"/>
<path d="M103.684 114.355C104.595 113.262 105.735 112.382 107.023 111.778C108.311 111.175 109.715 110.862 111.137 110.862C112.559 110.862 113.963 111.175 115.251 111.778C116.539 112.382 117.679 113.262 118.59 114.355C120.15 112.863 121.228 110.937 121.685 108.825C122.143 106.713 121.959 104.513 121.157 102.507C120.355 100.501 118.972 98.7818 117.186 97.5708C115.4 96.3599 113.293 95.7127 111.137 95.7127C108.981 95.7127 106.874 96.3599 105.088 97.5708C103.303 98.7818 101.92 100.501 101.118 102.507C100.316 104.513 100.131 106.713 100.589 108.825C101.046 110.937 102.124 112.863 103.684 114.355Z" fill="#EEEEEE"/>
<path d="M78.3113 106.568C80.362 106.568 82.0244 104.902 82.0244 102.847C82.0244 100.792 80.362 99.1256 78.3113 99.1256C76.2607 99.1256 74.5983 100.792 74.5983 102.847C74.5983 104.902 76.2607 106.568 78.3113 106.568Z" fill="#222831"/>
<path d="M107.454 106.568C109.505 106.568 111.167 104.902 111.167 102.847C111.167 100.792 109.505 99.1256 107.454 99.1256C105.403 99.1256 103.741 100.792 103.741 102.847C103.741 104.902 105.403 106.568 107.454 106.568Z" fill="#222831"/>
<path d="M71.1995 124.925C73.5841 124.925 75.5171 122.988 75.5171 120.598C75.5171 118.208 73.5841 116.271 71.1995 116.271C68.815 116.271 66.882 118.208 66.882 120.598C66.882 122.988 68.815 124.925 71.1995 124.925Z" fill="#EEEEEE"/>
<path d="M120.852 124.925C123.236 124.925 125.169 122.988 125.169 120.598C125.169 118.208 123.236 116.271 120.852 116.271C118.467 116.271 116.534 118.208 116.534 120.598C116.534 122.988 118.467 124.925 120.852 124.925Z" fill="#EEEEEE"/>
<path d="M96.0256 111.943L92.7874 126.007L98.1843 120.598L96.0256 111.943Z" fill="#EEEEEE"/>
<path d="M112.664 166.032L108.988 162.94L109.074 166.032H107.932L107.84 162.763L102.877 166.032H100.799L107.803 161.418L107.532 151.729L107.329 144.412L108.468 144.38L108.674 151.729L108.945 161.41L114.439 166.032H112.664Z" fill="#222831"/>
<path d="M95.3926 166.032L91.7162 162.94L91.8019 166.032H90.6631L90.5717 162.763L85.608 166.032H83.53L90.5317 161.418L90.2606 151.729L90.0579 144.412L91.1996 144.38L91.4051 151.729L91.6734 161.41L97.1681 166.032H95.3926Z" fill="#222831"/>
<path d="M98.1844 71.9178C97.1774 71.9178 96.2891 72.7018 95.6952 73.9059C95.1717 72.0952 94.0719 70.8361 92.7874 70.8361C92.7001 70.8448 92.6135 70.8593 92.5282 70.8797C92.0345 68.9465 90.887 67.5907 89.5492 67.5907C87.7608 67.5907 86.3111 70.0124 86.3111 72.9996C86.3111 75.9868 87.7608 78.4085 89.5492 78.4085C89.6365 78.3998 89.7232 78.3852 89.8085 78.3649C90.3022 80.298 91.4497 81.6538 92.7874 81.6538C93.7944 81.6538 94.6828 80.8699 95.2767 79.6658C95.8002 81.4764 96.9 82.7356 98.1844 82.7356C99.9728 82.7356 101.423 80.3139 101.423 77.3267C101.423 74.3395 99.9728 71.9178 98.1844 71.9178Z" fill="#222831"/>
<path d="M63.1976 125.341C61.7801 125.341 60.3765 125.061 59.0669 124.517C57.7573 123.974 56.5674 123.177 55.5651 122.172C54.5628 121.168 53.7677 119.975 53.2253 118.663C52.6828 117.35 52.4036 115.944 52.4036 114.523V109.114C52.4036 106.245 53.5408 103.494 55.5651 101.465C57.5894 99.4361 60.3348 98.2964 63.1976 98.2964V125.341Z" fill="#00ADB5"/>
<path d="M132.092 98.2964C133.509 98.2964 134.913 98.5763 136.223 99.1199C137.532 99.6635 138.722 100.46 139.724 101.465C140.727 102.469 141.522 103.662 142.064 104.974C142.607 106.287 142.886 107.694 142.886 109.114V114.523C142.886 115.944 142.607 117.35 142.064 118.663C141.522 119.975 140.727 121.168 139.724 122.172C138.722 123.177 137.532 123.974 136.223 124.517C134.913 125.061 133.509 125.341 132.092 125.341V98.2964H132.092Z" fill="#00ADB5"/>
<path d="M137.748 109.964H136.035C136.035 88.1967 118.365 70.4875 96.6457 70.4875C74.9262 70.4875 57.256 88.1967 57.256 109.964H55.5434C55.5434 87.2502 73.9818 68.7711 96.6457 68.7711C119.31 68.7711 137.748 87.2502 137.748 109.964Z" fill="#00ADB5"/>
<path d="M37.8738 76.8835L37.8741 76.8829L37.0695 76.5471L33.6747 75.1088L32.4578 74.5933L32.3645 74.8295L30.7299 78.9659L35.3301 80.9172L35.3543 80.9392L35.0443 81.6717C35.0019 81.7387 34.9657 81.8095 34.9361 81.8831C34.719 82.4327 35.1291 82.9793 35.5168 83.1332C35.9046 83.287 36.3949 82.9664 36.6121 82.4168C36.8263 81.8748 36.617 81.1862 36.2391 81.0198L36.2395 81.0192L35.4349 80.6834L32.6825 79.6111L34.2551 75.6316L34.0221 75.5391L32.4488 79.52L32.1085 79.3874L33.6879 75.3909L33.7295 75.4086L36.9648 76.7809L36.9889 76.8028L36.6789 77.5354C36.6365 77.6024 36.6003 77.6732 36.5708 77.7468C36.3536 78.2963 36.7637 78.8429 37.1514 78.9968C37.5392 79.1507 38.0295 78.83 38.2467 78.2805C38.4609 77.7385 38.2516 77.0499 37.8738 76.8835Z" fill="#222831"/>
<path d="M53.7962 87.0382C52.1262 86.0814 52.4604 83.9815 52.4604 83.9815C52.4184 82.6173 51.2938 82.8104 51.2938 82.8104L50.8845 82.904C50.6944 82.8156 50.485 82.7768 50.2759 82.7912L49.6533 82.8962C51.071 83.2301 50.9545 84.4186 50.9545 84.4186L51.1532 85.8084L47.4384 84.3065L47.8649 83.2986C47.9239 83.2056 47.9742 83.1073 48.0151 83.005C48.3167 82.2418 47.7471 81.4826 47.2086 81.2689C46.6701 81.0551 45.989 81.5006 45.6874 82.2638C45.3899 83.0166 45.6807 83.973 46.2054 84.204L46.205 84.2049L47.3225 84.6713L47.3308 84.6449L53.7962 87.0382ZM51.9098 84.5964L52.0289 85.9266C51.6083 85.3351 51.4107 84.6133 51.4713 83.8895C51.4614 83.632 51.3747 83.3835 51.2225 83.1759C51.4566 83.3261 51.6446 83.5383 51.7659 83.789C51.8872 84.0397 51.937 84.3191 51.9098 84.5964V84.5964Z" fill="#222831"/>
<path d="M25.4598 67.3653L25.4603 67.3644L24.3428 66.898L19.6723 65.0784L20.8511 64.0274C21.0817 63.7193 21.4223 63.5125 21.8015 63.4502C22.1808 63.3879 22.5693 63.475 22.886 63.6933L22.5202 63.1484C22.5202 63.1484 21.8325 62.236 20.8699 63.2014C20.8699 63.2014 19.6788 64.9611 17.808 64.5126L24.1973 67.2228L24.2309 67.2533L23.8003 68.2707C23.7414 68.3638 23.6911 68.4621 23.6501 68.5644C23.3485 69.3276 23.9181 70.0867 24.4566 70.3005C24.9952 70.5143 25.6762 70.0688 25.9778 69.3056C26.2753 68.5528 25.9846 67.5964 25.4598 67.3653Z" fill="#222831"/>
<path d="M42.5583 61.4101L42.1278 62.4275C42.0688 62.5206 42.0186 62.6188 41.9776 62.7211C41.6759 63.4844 42.2456 64.2435 42.7841 64.4573C43.3226 64.671 44.0037 64.2256 44.3053 63.4624C44.6028 62.7096 44.3121 61.7532 43.7873 61.5221L43.7877 61.5212L42.6703 61.0548L38.8475 59.5655L41.0317 54.0383L40.708 53.9098L38.5229 59.439L38.0502 59.2549L40.2438 53.7041L40.3016 53.7286L44.7951 55.6346L44.8286 55.6651L44.3981 56.6825C44.3391 56.7756 44.2889 56.8739 44.2479 56.9762C43.9462 57.7394 44.5159 58.4986 45.0544 58.7123C45.5929 58.9261 46.274 58.4806 46.5756 57.7174C46.8731 56.9646 46.5824 56.0082 46.0576 55.7771L46.058 55.7762L44.9406 55.3098L40.3738 53.3751L40.3736 53.375L40.2255 53.3122L38.5354 52.5962L36.1354 58.6693L42.5248 61.3796L42.5583 61.4101Z" fill="#222831"/>
<path d="M22.3103 30.307L22.3111 30.3054L20.3874 29.5026L12.3476 26.3703L14.3767 24.5609C14.3767 24.5609 15.7265 22.684 17.8796 23.9858L17.25 23.0479C17.25 23.0479 16.0661 21.4771 14.4091 23.139C14.4091 23.139 12.3587 26.1683 9.13815 25.3961L20.137 30.0617L20.1948 30.1141L19.4536 31.8656C19.3521 32.0258 19.2656 32.195 19.195 32.3711C18.6758 33.6849 19.6564 34.9918 20.5834 35.3598C21.5104 35.7278 22.6829 34.9609 23.2021 33.6471C23.7142 32.3512 23.2137 30.7048 22.3103 30.307Z" fill="#222831"/>
<path d="M28.2139 56.6184C24.2212 54.3305 25.0202 49.3099 25.0202 49.3099C24.9197 46.0483 22.2309 46.51 22.2309 46.51L21.2523 46.7338C20.7978 46.5224 20.2972 46.4296 19.7972 46.4641L18.3086 46.7152C21.6982 47.5134 21.4197 50.3552 21.4197 50.3552L21.8946 53.6779L13.013 50.087L14.0327 47.6773C14.1737 47.4548 14.2939 47.2198 14.3919 46.9752C15.1131 45.1504 13.7511 43.3353 12.4635 42.8242C11.176 42.3131 9.54761 43.3782 8.82648 45.2029C8.11517 47.0029 8.81031 49.2895 10.065 49.842L10.0639 49.8442L12.7357 50.9593L12.7556 50.8962L28.2139 56.6184ZM23.7037 50.7801L23.9895 53.9716C22.3125 51.7406 22.6553 49.0899 22.6553 49.0899C22.6316 48.4744 22.4244 47.8801 22.0604 47.3837C23.9868 48.539 23.7037 50.7801 23.7037 50.7801H23.7037Z" fill="#222831"/>
</g>
<defs>
<clipPath id="clip0">
<rect width="196" height="171" fill="white"/>
</clipPath>
</defs>
</svg>
