<svg width="53" height="47" viewBox="0 0 53 47" fill="none" xmlns="http://www.w3.org/2000/svg">
<path d="M38.9219 0C36.0459 0 33.4092 0.91546 31.085 2.72101C28.8568 4.452 27.3734 6.65674 26.5 8.25994C25.6266 6.65663 24.1432 4.452 21.915 2.72101C19.5908 0.91546 16.9541 0 14.0781 0C6.05235 0 0 6.59425 0 15.3388C0 24.7861 7.55074 31.2497 18.9816 41.0347C20.9227 42.6965 23.1229 44.58 25.4098 46.5889C25.7112 46.854 26.0984 47 26.5 47C26.9016 47 27.2888 46.854 27.5902 46.589C29.8773 44.5798 32.0774 42.6964 34.0197 41.0337C45.4493 31.2497 53 24.7861 53 15.3388C53 6.59425 46.9476 0 38.9219 0Z" fill="black"/>
</svg>
