<svg width="49" height="49" viewBox="0 0 49 49" fill="none" xmlns="http://www.w3.org/2000/svg">
<g clip-path="url(#clip1)">
<path d="M40.6597 21.004L25.4912 9.89793C25.1987 9.6838 24.8013 9.6838 24.509 9.89793L9.34033 21.004C8.96983 21.2753 8.88933 21.7956 9.16065 22.1661C9.43196 22.5366 9.95227 22.6169 10.3227 22.3457L25 11.5992L39.6773 22.3457C39.8253 22.4541 39.9973 22.5063 40.1678 22.5063C40.4238 22.5063 40.6765 22.3885 40.8393 22.166C41.1107 21.7956 41.0302 21.2753 40.6597 21.004Z" fill="#EEEEEE"/>
<path d="M36.6404 22.5339C36.1813 22.5339 35.809 22.9062 35.809 23.3654V36.5997H29.1576V29.3756C29.1576 27.0831 27.2925 25.2181 25.0001 25.2181C22.7077 25.2181 20.8426 27.0832 20.8426 29.3756V36.5997H14.1911V23.3654C14.1911 22.9062 13.8188 22.534 13.3597 22.534C12.9006 22.534 12.5283 22.9062 12.5283 23.3654V37.4312C12.5283 37.8904 12.9006 38.2627 13.3597 38.2627H21.674C22.1113 38.2627 22.4691 37.9249 22.5022 37.496C22.5042 37.4766 22.5054 37.4553 22.5054 37.4312V29.3756C22.5054 28.0001 23.6245 26.881 25.0001 26.881C26.3756 26.881 27.4947 28.0001 27.4947 29.3756V37.4312C27.4947 37.4552 27.496 37.4761 27.498 37.4952C27.5307 37.9244 27.8886 38.2627 28.3261 38.2627H36.6405C37.0996 38.2627 37.4719 37.8904 37.4719 37.4312V23.3654C37.4718 22.9062 37.0996 22.5339 36.6404 22.5339Z" fill="#EEEEEE"/>
</g>
<path fill-rule="evenodd" clip-rule="evenodd" d="M24.5 48C37.4787 48 48 37.4787 48 24.5C48 11.5213 37.4787 1 24.5 1C11.5213 1 1 11.5213 1 24.5C1 37.4787 11.5213 48 24.5 48ZM24.5 49C38.031 49 49 38.031 49 24.5C49 10.969 38.031 0 24.5 0C10.969 0 0 10.969 0 24.5C0 38.031 10.969 49 24.5 49Z" fill="#EEEEEE"/>
<defs>
<clipPath id="clip1">
<rect width="32" height="32" fill="white" transform="translate(9 8)"/>
</clipPath>
</defs>
</svg>
