<svg width="170" height="33" viewBox="0 0 170 33" fill="none" xmlns="http://www.w3.org/2000/svg">
<path d="M11.6685 21.208H7.6792V32H0.30957V1.42969H12.3403C15.9657 1.42969 18.8001 2.23454 20.8438 3.84424C22.8874 5.45394 23.9092 7.72852 23.9092 10.668C23.9092 12.7956 23.4753 14.5592 22.6074 15.959C21.7536 17.3587 20.4098 18.4925 18.5762 19.3604L24.959 31.6851V32H17.0645L11.6685 21.208ZM7.6792 15.5181H12.3403C13.7401 15.5181 14.7899 15.1541 15.4897 14.4263C16.2036 13.6844 16.5605 12.6556 16.5605 11.3398C16.5605 10.0241 16.2036 8.99528 15.4897 8.25342C14.7759 7.49756 13.7261 7.11963 12.3403 7.11963H7.6792V15.5181Z" fill="#00ADB5"/>
<path d="M47.3198 19.0454H35.73V26.3311H49.4194V32H28.3604V1.42969H49.4614V7.11963H35.73V13.5654H47.3198V19.0454Z" fill="#00ADB5"/>
<path d="M77.1553 21.6489C77.0573 23.7765 76.4834 25.6592 75.4336 27.2969C74.3838 28.9206 72.9071 30.1803 71.0034 31.0762C69.1138 31.972 66.9512 32.4199 64.5156 32.4199C60.4984 32.4199 57.335 31.1112 55.0254 28.4937C52.7158 25.8761 51.561 22.1808 51.561 17.4077V15.896C51.561 12.9006 52.0789 10.283 53.1147 8.04346C54.1646 5.78988 55.6693 4.0542 57.6289 2.83643C59.5885 1.60465 61.8561 0.98877 64.4316 0.98877C68.141 0.98877 71.1224 1.96859 73.376 3.92822C75.6296 5.87386 76.9103 8.56136 77.2183 11.9907H69.8696C69.8136 10.1291 69.3447 8.79232 68.4629 7.98047C67.5811 7.16862 66.2373 6.7627 64.4316 6.7627C62.598 6.7627 61.2542 7.44857 60.4004 8.82031C59.5465 10.1921 59.0986 12.3826 59.0566 15.3921V17.5547C59.0566 20.8161 59.4626 23.1466 60.2744 24.5464C61.1003 25.9461 62.514 26.646 64.5156 26.646C66.2093 26.646 67.5041 26.2471 68.3999 25.4492C69.2957 24.6514 69.7716 23.3846 69.8276 21.6489H77.1553Z" fill="#00ADB5"/>
<path d="M106.529 17.3447C106.529 20.3262 105.976 22.9647 104.87 25.2603C103.764 27.5558 102.19 29.3265 100.146 30.5723C98.1164 31.804 95.7998 32.4199 93.1963 32.4199C90.5928 32.4199 88.2832 31.825 86.2676 30.6353C84.252 29.4315 82.6772 27.7168 81.5435 25.4912C80.4237 23.2656 79.8358 20.7111 79.7798 17.8276V16.106C79.7798 13.1105 80.3257 10.472 81.4175 8.19043C82.5233 5.89486 84.098 4.12419 86.1416 2.87842C88.1992 1.63265 90.5368 1.00977 93.1543 1.00977C95.7438 1.00977 98.0534 1.62565 100.083 2.85742C102.113 4.08919 103.687 5.84587 104.807 8.12744C105.941 10.395 106.515 12.9985 106.529 15.938V17.3447ZM99.0332 16.064C99.0332 13.0265 98.5223 10.724 97.5005 9.15625C96.4927 7.57454 95.0439 6.78369 93.1543 6.78369C89.459 6.78369 87.5063 9.55518 87.2964 15.0981L87.2754 17.3447C87.2754 20.3402 87.7723 22.6427 88.7661 24.2524C89.7599 25.8621 91.2367 26.667 93.1963 26.667C95.0579 26.667 96.4927 25.8761 97.5005 24.2944C98.5083 22.7127 99.0192 20.4382 99.0332 17.4707V16.064Z" fill="#00ADB5"/>
<path d="M120.008 1.42969L126.832 22.6987L133.635 1.42969H143.335V32H135.944V24.8613L136.658 10.248L129.268 32H124.396L116.985 10.2271L117.699 24.8613V32H110.329V1.42969H120.008Z" fill="#00ADB5"/>
<path d="M166.998 19.0454H155.408V26.3311H169.097V32H148.038V1.42969H169.139V7.11963H155.408V13.5654H166.998V19.0454Z" fill="#00ADB5"/>
</svg>
