<svg width="88" height="88" viewBox="0 0 88 88" fill="none" xmlns="http://www.w3.org/2000/svg">
<g clip-path="url(#clip0)">
<path d="M44.5645 32.6588C39.6071 32.6588 35.588 36.6776 35.588 41.6353C35.588 46.5928 39.6068 50.6119 44.5645 50.6119C49.522 50.6119 53.541 46.593 53.541 41.6353C53.541 36.6776 49.5222 32.6588 44.5645 32.6588ZM44.5645 46.3371C41.9677 46.3371 39.8625 44.232 39.8625 41.6351C39.8625 39.0383 41.9677 36.9331 44.5645 36.9331C47.1614 36.9331 49.2665 39.0383 49.2665 41.6351C49.2665 44.232 47.1614 46.3371 44.5645 46.3371Z" fill="black"/>
<path d="M80.3637 12.141L22.0167 5.51568C19.7522 5.19373 17.4579 5.85481 15.7119 7.33242C13.9661 8.68608 12.8471 10.6926 12.6129 12.8892L11.5444 21.652H8.2314C3.52939 21.652 0.00288791 25.8195 0.00288791 30.5215V74.2282C-0.115542 78.712 3.42324 82.443 7.9072 82.5614C8.0152 82.5643 8.1234 82.5649 8.2314 82.5635H66.8989C71.6009 82.5635 75.8754 78.9302 75.8754 74.2282V72.5184C77.3332 72.2368 78.7161 71.6545 79.9362 70.8087C81.6676 69.3509 82.7763 67.2865 83.0352 65.0381L87.951 21.652C88.4521 16.9391 85.07 12.6996 80.3637 12.141ZM71.6009 74.2282C71.6009 76.5792 69.2499 78.289 66.8989 78.289H8.2314C6.10764 78.3514 4.33549 76.6803 4.27311 74.5565C4.26983 74.4471 4.27127 74.3376 4.2774 74.2282V66.3204L20.8412 54.1381C22.831 52.6104 25.6336 52.7462 27.4667 54.4586L39.1148 64.7174C40.8836 66.2026 43.1103 67.0328 45.4198 67.0684C47.2255 67.0905 49.0015 66.6096 50.5493 65.6792L71.6011 53.4969V74.2282H71.6009ZM71.6009 48.4744L48.3048 62.0459C46.3044 63.231 43.7724 63.0165 41.9998 61.5116L30.245 51.1459C26.876 48.251 21.9519 48.0735 18.3832 50.7184L4.2774 60.9772V30.5215C4.2774 28.1705 5.8804 25.9265 8.2314 25.9265H66.8989C69.4107 26.0306 71.4391 28.013 71.6009 30.5215V48.4744V48.4744ZM83.6805 21.075C83.6791 21.0891 83.6779 21.1034 83.6762 21.1175L78.6537 64.5037C78.6623 65.6287 78.1493 66.6941 77.2645 67.3889C76.837 67.8164 75.8752 68.0302 75.8752 68.2439V30.5215C75.7065 25.6532 71.7686 21.7622 66.8987 21.652H15.8187L16.7804 13.3167C16.9891 12.2373 17.5534 11.2592 18.3834 10.5382C19.3206 9.89021 20.4538 9.58811 21.5894 9.68322L79.8296 16.4155C82.1794 16.6387 83.9037 18.7248 83.6805 21.075Z" fill="black"/>
</g>
<defs>
<clipPath id="clip0">
<rect width="88" height="88" fill="white"/>
</clipPath>
</defs>
</svg>
